<svg xmlns="http://www.w3.org/2000/svg" xmlns:xlink="http://www.w3.org/1999/xlink" width="170" zoomAndPan="magnify" viewBox="0 0 127.5 32.999998" height="44" preserveAspectRatio="xMidYMid meet" version="1.0"><defs><g/><clipPath id="8c06de93a9"><path d="M 0 1.96875 L 29 1.96875 L 29 29.609375 L 0 29.609375 Z M 0 1.96875 " clip-rule="nonzero"/></clipPath></defs><g clip-path="url(#8c06de93a9)"><path fill="#ffffff" d="M 24.054688 9.226562 C 24.054688 9.214844 24.054688 9.203125 24.054688 9.191406 C 24.054688 6.539062 21.898438 4.378906 19.246094 4.378906 C 18.425781 4.378906 17.628906 4.589844 16.957031 4.957031 C 15.738281 3.101562 13.675781 1.976562 11.425781 1.976562 C 7.527344 1.976562 4.472656 5.339844 4.839844 9.222656 C 2.125 9.507812 0 11.8125 0 14.605469 C 0 17.589844 2.429688 20.015625 5.414062 20.015625 L 10.222656 20.015625 L 10.222656 24.226562 L 8.917969 24.226562 C 8.667969 23.527344 8 23.023438 7.21875 23.023438 C 6.222656 23.023438 5.414062 23.832031 5.414062 24.828125 C 5.414062 25.824219 6.222656 26.632812 7.21875 26.632812 C 8 26.632812 8.667969 26.128906 8.917969 25.429688 L 10.824219 25.429688 C 11.15625 25.429688 11.425781 25.160156 11.425781 24.828125 L 11.425781 20.015625 L 13.832031 20.015625 L 13.832031 26.132812 C 13.132812 26.382812 12.628906 27.050781 12.628906 27.835938 C 12.628906 28.828125 13.4375 29.640625 14.433594 29.640625 C 15.429688 29.640625 16.238281 28.828125 16.238281 27.835938 C 16.238281 27.050781 15.734375 26.382812 15.035156 26.132812 L 15.035156 20.015625 L 17.441406 20.015625 L 17.441406 24.828125 C 17.441406 25.160156 17.710938 25.429688 18.042969 25.429688 L 19.949219 25.429688 C 20.199219 26.128906 20.867188 26.632812 21.652344 26.632812 C 22.644531 26.632812 23.453125 25.824219 23.453125 24.828125 C 23.453125 23.832031 22.644531 23.023438 21.652344 23.023438 C 20.867188 23.023438 20.199219 23.527344 19.949219 24.226562 L 18.644531 24.226562 L 18.644531 20.015625 L 23.453125 20.015625 C 26.4375 20.015625 28.867188 17.589844 28.867188 14.605469 C 28.867188 11.824219 26.757812 9.523438 24.054688 9.226562 Z M 23.453125 18.8125 L 5.414062 18.8125 C 3.089844 18.8125 1.203125 16.925781 1.203125 14.605469 C 1.203125 12.28125 3.089844 10.394531 5.414062 10.394531 L 5.53125 10.394531 C 5.914062 10.394531 6.199219 10.046875 6.121094 9.671875 C 5.4375 6.300781 8.027344 3.175781 11.425781 3.175781 C 13.28125 3.175781 14.984375 4.117188 15.976562 5.660156 C 15.351562 6.242188 14.882812 6.980469 14.632812 7.816406 C 14.539062 8.136719 14.71875 8.46875 15.039062 8.566406 C 15.359375 8.660156 15.691406 8.476562 15.785156 8.160156 C 16.238281 6.644531 17.660156 5.582031 19.246094 5.582031 C 21.234375 5.582031 22.851562 7.203125 22.851562 9.191406 C 22.851562 9.359375 22.839844 9.535156 22.816406 9.707031 C 22.792969 9.878906 22.84375 10.054688 22.957031 10.1875 C 23.164062 10.425781 23.4375 10.390625 23.453125 10.394531 C 25.777344 10.394531 27.664062 12.28125 27.664062 14.605469 C 27.664062 16.925781 25.777344 18.8125 23.453125 18.8125 Z M 23.453125 18.8125 " fill-opacity="1" fill-rule="nonzero"/></g><g fill="#ffffff" fill-opacity="1"><g transform="translate(29.935149, 15.430027)"><g><path d="M 0.0625 -5.5 L 0.0625 -6.890625 L 4.90625 -6.890625 L 4.90625 -5.5 L 3.265625 -5.5 L 3.265625 0 L 1.703125 0 L 1.703125 -5.5 Z M 0.0625 -5.5 "/></g></g></g><g fill="#ffffff" fill-opacity="1"><g transform="translate(34.90752, 15.430027)"><g><path d="M 0.5 0 L 0.5 -7.171875 L 1.984375 -7.171875 L 1.984375 -3.828125 L 2 -3.828125 C 2.375 -4.210938 2.78125 -4.40625 3.21875 -4.40625 C 3.425781 -4.40625 3.632812 -4.375 3.84375 -4.3125 C 4.050781 -4.257812 4.25 -4.175781 4.4375 -4.0625 C 4.632812 -3.945312 4.789062 -3.78125 4.90625 -3.5625 C 5.03125 -3.351562 5.09375 -3.101562 5.09375 -2.8125 L 5.09375 0 L 3.625 0 L 3.625 -2.421875 C 3.625 -2.640625 3.550781 -2.832031 3.40625 -3 C 3.269531 -3.164062 3.085938 -3.25 2.859375 -3.25 C 2.628906 -3.25 2.425781 -3.160156 2.25 -2.984375 C 2.070312 -2.816406 1.984375 -2.628906 1.984375 -2.421875 L 1.984375 0 Z M 0.5 0 "/></g></g></g><g fill="#ffffff" fill-opacity="1"><g transform="translate(40.422174, 15.430027)"><g><path d="M 4.828125 -1.9375 L 1.734375 -1.9375 C 1.734375 -1.632812 1.828125 -1.410156 2.015625 -1.265625 C 2.210938 -1.117188 2.425781 -1.046875 2.65625 -1.046875 C 2.894531 -1.046875 3.082031 -1.078125 3.21875 -1.140625 C 3.351562 -1.210938 3.515625 -1.34375 3.703125 -1.53125 L 4.765625 -1 C 4.316406 -0.25 3.578125 0.125 2.546875 0.125 C 1.898438 0.125 1.34375 -0.09375 0.875 -0.53125 C 0.414062 -0.976562 0.1875 -1.515625 0.1875 -2.140625 C 0.1875 -2.765625 0.414062 -3.296875 0.875 -3.734375 C 1.34375 -4.179688 1.898438 -4.40625 2.546875 -4.40625 C 3.222656 -4.40625 3.773438 -4.207031 4.203125 -3.8125 C 4.628906 -3.425781 4.84375 -2.867188 4.84375 -2.140625 C 4.84375 -2.035156 4.835938 -1.96875 4.828125 -1.9375 Z M 1.765625 -2.75 L 3.390625 -2.75 C 3.359375 -2.976562 3.269531 -3.148438 3.125 -3.265625 C 2.988281 -3.390625 2.8125 -3.453125 2.59375 -3.453125 C 2.34375 -3.453125 2.144531 -3.382812 2 -3.25 C 1.851562 -3.125 1.773438 -2.957031 1.765625 -2.75 Z M 1.765625 -2.75 "/></g></g></g><g fill="#ffffff" fill-opacity="1"><g transform="translate(45.452944, 15.430027)"><g><path d="M 0.78125 -0.53125 C 0.382812 -0.96875 0.1875 -1.503906 0.1875 -2.140625 C 0.1875 -2.773438 0.382812 -3.3125 0.78125 -3.75 C 1.1875 -4.1875 1.695312 -4.40625 2.3125 -4.40625 C 2.882812 -4.40625 3.351562 -4.226562 3.71875 -3.875 L 3.71875 -7.171875 L 5.203125 -7.171875 L 5.203125 0 L 3.734375 0 L 3.734375 -0.484375 L 3.71875 -0.484375 C 3.351562 -0.078125 2.882812 0.125 2.3125 0.125 C 1.695312 0.125 1.1875 -0.09375 0.78125 -0.53125 Z M 2.046875 -2.859375 C 1.859375 -2.671875 1.765625 -2.425781 1.765625 -2.125 C 1.765625 -1.832031 1.851562 -1.59375 2.03125 -1.40625 C 2.21875 -1.226562 2.460938 -1.140625 2.765625 -1.140625 C 3.054688 -1.140625 3.289062 -1.234375 3.46875 -1.421875 C 3.65625 -1.609375 3.75 -1.847656 3.75 -2.140625 C 3.75 -2.429688 3.648438 -2.671875 3.453125 -2.859375 C 3.265625 -3.046875 3.035156 -3.140625 2.765625 -3.140625 C 2.484375 -3.140625 2.242188 -3.046875 2.046875 -2.859375 Z M 2.046875 -2.859375 "/></g></g></g><g fill="#ffffff" fill-opacity="1"><g transform="translate(51.151147, 15.430027)"><g><path d="M 0.90625 -0.5 C 0.425781 -0.925781 0.1875 -1.46875 0.1875 -2.125 C 0.1875 -2.789062 0.429688 -3.335938 0.921875 -3.765625 C 1.421875 -4.191406 2.035156 -4.40625 2.765625 -4.40625 C 3.484375 -4.40625 4.085938 -4.191406 4.578125 -3.765625 C 5.078125 -3.335938 5.328125 -2.796875 5.328125 -2.140625 C 5.328125 -1.484375 5.082031 -0.941406 4.59375 -0.515625 C 4.113281 -0.0859375 3.503906 0.125 2.765625 0.125 C 2.003906 0.125 1.382812 -0.0820312 0.90625 -0.5 Z M 2.046875 -2.859375 C 1.859375 -2.671875 1.765625 -2.425781 1.765625 -2.125 C 1.765625 -1.832031 1.851562 -1.59375 2.03125 -1.40625 C 2.21875 -1.226562 2.460938 -1.140625 2.765625 -1.140625 C 3.054688 -1.140625 3.289062 -1.234375 3.46875 -1.421875 C 3.65625 -1.609375 3.75 -1.847656 3.75 -2.140625 C 3.75 -2.429688 3.648438 -2.671875 3.453125 -2.859375 C 3.265625 -3.046875 3.035156 -3.140625 2.765625 -3.140625 C 2.484375 -3.140625 2.242188 -3.046875 2.046875 -2.859375 Z M 2.046875 -2.859375 "/></g></g></g><g fill="#ffffff" fill-opacity="1"><g transform="translate(56.665801, 15.430027)"><g><path d="M 0.5 0 L 0.5 -4.28125 L 1.984375 -4.28125 L 1.984375 -3.828125 L 2 -3.828125 C 2.375 -4.210938 2.78125 -4.40625 3.21875 -4.40625 C 3.425781 -4.40625 3.632812 -4.375 3.84375 -4.3125 C 4.050781 -4.257812 4.25 -4.175781 4.4375 -4.0625 C 4.632812 -3.945312 4.789062 -3.78125 4.90625 -3.5625 C 5.03125 -3.351562 5.09375 -3.101562 5.09375 -2.8125 L 5.09375 0 L 3.625 0 L 3.625 -2.421875 C 3.625 -2.640625 3.550781 -2.832031 3.40625 -3 C 3.269531 -3.164062 3.085938 -3.25 2.859375 -3.25 C 2.628906 -3.25 2.425781 -3.160156 2.25 -2.984375 C 2.070312 -2.816406 1.984375 -2.628906 1.984375 -2.421875 L 1.984375 0 Z M 0.5 0 "/></g></g></g><g fill="#ffffff" fill-opacity="1"><g transform="translate(62.180456, 15.430027)"><g><path d="M 0.3125 1.046875 L 1.515625 0.453125 C 1.742188 0.828125 2.128906 1.015625 2.671875 1.015625 C 2.929688 1.015625 3.171875 0.929688 3.390625 0.765625 C 3.609375 0.597656 3.71875 0.347656 3.71875 0.015625 L 3.71875 -0.3125 C 3.457031 -0.0195312 2.988281 0.125 2.3125 0.125 C 1.695312 0.125 1.1875 -0.09375 0.78125 -0.53125 C 0.382812 -0.96875 0.1875 -1.503906 0.1875 -2.140625 C 0.1875 -2.773438 0.382812 -3.3125 0.78125 -3.75 C 1.1875 -4.1875 1.695312 -4.40625 2.3125 -4.40625 C 2.863281 -4.40625 3.328125 -4.234375 3.703125 -3.890625 L 3.71875 -3.890625 L 3.71875 -4.28125 L 5.203125 -4.28125 L 5.203125 0.109375 C 5.203125 0.804688 4.96875 1.34375 4.5 1.71875 C 4.039062 2.101562 3.429688 2.296875 2.671875 2.296875 C 1.453125 2.296875 0.664062 1.878906 0.3125 1.046875 Z M 2.046875 -2.859375 C 1.859375 -2.671875 1.765625 -2.425781 1.765625 -2.125 C 1.765625 -1.832031 1.851562 -1.59375 2.03125 -1.40625 C 2.21875 -1.226562 2.460938 -1.140625 2.765625 -1.140625 C 3.054688 -1.140625 3.289062 -1.234375 3.46875 -1.421875 C 3.65625 -1.609375 3.75 -1.847656 3.75 -2.140625 C 3.75 -2.429688 3.648438 -2.671875 3.453125 -2.859375 C 3.265625 -3.046875 3.035156 -3.140625 2.765625 -3.140625 C 2.484375 -3.140625 2.242188 -3.046875 2.046875 -2.859375 Z M 2.046875 -2.859375 "/></g></g></g><g fill="#ffffff" fill-opacity="1"><g transform="translate(67.878658, 15.430027)"><g><path d="M 0.5 0 L 0.5 -4.28125 L 1.984375 -4.28125 L 1.984375 -3.65625 L 2 -3.65625 C 2.007812 -3.6875 2.023438 -3.71875 2.046875 -3.75 C 2.066406 -3.78125 2.117188 -3.835938 2.203125 -3.921875 C 2.296875 -4.003906 2.390625 -4.078125 2.484375 -4.140625 C 2.578125 -4.210938 2.695312 -4.273438 2.84375 -4.328125 C 3 -4.378906 3.148438 -4.40625 3.296875 -4.40625 C 3.460938 -4.40625 3.625 -4.378906 3.78125 -4.328125 C 3.9375 -4.285156 4.050781 -4.242188 4.125 -4.203125 L 4.234375 -4.140625 L 3.625 -2.890625 C 3.4375 -3.046875 3.179688 -3.125 2.859375 -3.125 C 2.679688 -3.125 2.523438 -3.082031 2.390625 -3 C 2.265625 -2.925781 2.175781 -2.832031 2.125 -2.71875 C 2.070312 -2.601562 2.035156 -2.503906 2.015625 -2.421875 C 1.992188 -2.347656 1.984375 -2.289062 1.984375 -2.25 L 1.984375 0 Z M 0.5 0 "/></g></g></g><g fill="#ffffff" fill-opacity="1"><g transform="translate(72.033423, 15.430027)"><g><path d="M 0.78125 -0.53125 C 0.382812 -0.96875 0.1875 -1.503906 0.1875 -2.140625 C 0.1875 -2.773438 0.382812 -3.3125 0.78125 -3.75 C 1.1875 -4.1875 1.695312 -4.40625 2.3125 -4.40625 C 2.882812 -4.40625 3.351562 -4.226562 3.71875 -3.875 L 3.71875 -4.28125 L 5.203125 -4.28125 L 5.203125 0 L 3.734375 0 L 3.734375 -0.484375 L 3.71875 -0.484375 C 3.351562 -0.078125 2.882812 0.125 2.3125 0.125 C 1.695312 0.125 1.1875 -0.09375 0.78125 -0.53125 Z M 2.046875 -2.859375 C 1.859375 -2.671875 1.765625 -2.425781 1.765625 -2.125 C 1.765625 -1.832031 1.851562 -1.59375 2.03125 -1.40625 C 2.21875 -1.226562 2.460938 -1.140625 2.765625 -1.140625 C 3.054688 -1.140625 3.289062 -1.234375 3.46875 -1.421875 C 3.65625 -1.609375 3.75 -1.847656 3.75 -2.140625 C 3.75 -2.429688 3.648438 -2.671875 3.453125 -2.859375 C 3.265625 -3.046875 3.035156 -3.140625 2.765625 -3.140625 C 2.484375 -3.140625 2.242188 -3.046875 2.046875 -2.859375 Z M 2.046875 -2.859375 "/></g></g></g><g fill="#ffffff" fill-opacity="1"><g transform="translate(77.731625, 15.430027)"><g><path d="M 4.90625 -3.75 C 5.300781 -3.3125 5.5 -2.773438 5.5 -2.140625 C 5.5 -1.503906 5.300781 -0.96875 4.90625 -0.53125 C 4.507812 -0.09375 4 0.125 3.375 0.125 C 2.8125 0.125 2.347656 -0.0507812 1.984375 -0.40625 L 1.984375 2.171875 L 0.5 2.171875 L 0.5 -4.28125 L 1.953125 -4.28125 L 1.953125 -3.796875 L 1.984375 -3.796875 C 2.347656 -4.203125 2.8125 -4.40625 3.375 -4.40625 C 4 -4.40625 4.507812 -4.1875 4.90625 -3.75 Z M 3.640625 -1.421875 C 3.835938 -1.609375 3.9375 -1.847656 3.9375 -2.140625 C 3.9375 -2.441406 3.84375 -2.679688 3.65625 -2.859375 C 3.476562 -3.046875 3.238281 -3.140625 2.9375 -3.140625 C 2.644531 -3.140625 2.40625 -3.046875 2.21875 -2.859375 C 2.03125 -2.671875 1.9375 -2.429688 1.9375 -2.140625 C 1.9375 -1.847656 2.03125 -1.609375 2.21875 -1.421875 C 2.414062 -1.234375 2.65625 -1.140625 2.9375 -1.140625 C 3.21875 -1.140625 3.453125 -1.234375 3.640625 -1.421875 Z M 3.640625 -1.421875 "/></g></g></g><g fill="#ffffff" fill-opacity="1"><g transform="translate(83.429828, 15.430027)"><g><path d="M 0.5 0 L 0.5 -7.171875 L 1.984375 -7.171875 L 1.984375 -3.828125 L 2 -3.828125 C 2.375 -4.210938 2.78125 -4.40625 3.21875 -4.40625 C 3.425781 -4.40625 3.632812 -4.375 3.84375 -4.3125 C 4.050781 -4.257812 4.25 -4.175781 4.4375 -4.0625 C 4.632812 -3.945312 4.789062 -3.78125 4.90625 -3.5625 C 5.03125 -3.351562 5.09375 -3.101562 5.09375 -2.8125 L 5.09375 0 L 3.625 0 L 3.625 -2.421875 C 3.625 -2.640625 3.550781 -2.832031 3.40625 -3 C 3.269531 -3.164062 3.085938 -3.25 2.859375 -3.25 C 2.628906 -3.25 2.425781 -3.160156 2.25 -2.984375 C 2.070312 -2.816406 1.984375 -2.628906 1.984375 -2.421875 L 1.984375 0 Z M 0.5 0 "/></g></g></g><g fill="#ffffff" fill-opacity="1"><g transform="translate(88.944482, 15.430027)"><g><path d="M 0.640625 -6.65625 C 0.816406 -6.832031 1.023438 -6.921875 1.265625 -6.921875 C 1.503906 -6.921875 1.707031 -6.832031 1.875 -6.65625 C 2.050781 -6.488281 2.140625 -6.285156 2.140625 -6.046875 C 2.140625 -5.804688 2.050781 -5.597656 1.875 -5.421875 C 1.707031 -5.253906 1.503906 -5.171875 1.265625 -5.171875 C 1.023438 -5.171875 0.816406 -5.253906 0.640625 -5.421875 C 0.472656 -5.597656 0.390625 -5.804688 0.390625 -6.046875 C 0.390625 -6.285156 0.472656 -6.488281 0.640625 -6.65625 Z M 0.5 -4.28125 L 0.5 0 L 1.984375 0 L 1.984375 -4.28125 Z M 0.5 -4.28125 "/></g></g></g><g fill="#ffffff" fill-opacity="1"><g transform="translate(91.464036, 15.430027)"><g><path d="M 5.453125 0 L 3.671875 0 L 2.734375 -1.203125 L 1.78125 0 L 0 0 L 1.828125 -2.234375 L 0.265625 -4.28125 L 1.984375 -4.28125 L 2.734375 -3.28125 L 3.46875 -4.28125 L 5.203125 -4.28125 L 3.625 -2.234375 Z M 5.453125 0 "/></g></g></g><g fill="#ffffff" fill-opacity="1"><g transform="translate(96.920291, 15.430027)"><g><path d="M 1.453125 -1.78125 C 1.722656 -1.78125 1.945312 -1.6875 2.125 -1.5 C 2.3125 -1.3125 2.40625 -1.085938 2.40625 -0.828125 C 2.40625 -0.566406 2.3125 -0.34375 2.125 -0.15625 C 1.945312 0.03125 1.722656 0.125 1.453125 0.125 C 1.191406 0.125 0.96875 0.03125 0.78125 -0.15625 C 0.59375 -0.34375 0.5 -0.566406 0.5 -0.828125 C 0.5 -1.085938 0.59375 -1.3125 0.78125 -1.5 C 0.96875 -1.6875 1.191406 -1.78125 1.453125 -1.78125 Z M 1.453125 -1.78125 "/></g></g></g><g fill="#ffffff" fill-opacity="1"><g transform="translate(99.831966, 15.430027)"><g><path d="M 0.90625 -0.5 C 0.425781 -0.925781 0.1875 -1.46875 0.1875 -2.125 C 0.1875 -2.789062 0.429688 -3.335938 0.921875 -3.765625 C 1.421875 -4.191406 2.035156 -4.40625 2.765625 -4.40625 C 3.484375 -4.40625 4.085938 -4.191406 4.578125 -3.765625 C 5.078125 -3.335938 5.328125 -2.796875 5.328125 -2.140625 C 5.328125 -1.484375 5.082031 -0.941406 4.59375 -0.515625 C 4.113281 -0.0859375 3.503906 0.125 2.765625 0.125 C 2.003906 0.125 1.382812 -0.0820312 0.90625 -0.5 Z M 2.046875 -2.859375 C 1.859375 -2.671875 1.765625 -2.425781 1.765625 -2.125 C 1.765625 -1.832031 1.851562 -1.59375 2.03125 -1.40625 C 2.21875 -1.226562 2.460938 -1.140625 2.765625 -1.140625 C 3.054688 -1.140625 3.289062 -1.234375 3.46875 -1.421875 C 3.65625 -1.609375 3.75 -1.847656 3.75 -2.140625 C 3.75 -2.429688 3.648438 -2.671875 3.453125 -2.859375 C 3.265625 -3.046875 3.035156 -3.140625 2.765625 -3.140625 C 2.484375 -3.140625 2.242188 -3.046875 2.046875 -2.859375 Z M 2.046875 -2.859375 "/></g></g></g><g fill="#ffffff" fill-opacity="1"><g transform="translate(105.346621, 15.430027)"><g><path d="M 0.5 0 L 0.5 -4.28125 L 1.984375 -4.28125 L 1.984375 -3.828125 L 2 -3.828125 C 2.375 -4.210938 2.78125 -4.40625 3.21875 -4.40625 C 3.425781 -4.40625 3.632812 -4.375 3.84375 -4.3125 C 4.050781 -4.257812 4.25 -4.175781 4.4375 -4.0625 C 4.632812 -3.945312 4.789062 -3.78125 4.90625 -3.5625 C 5.03125 -3.351562 5.09375 -3.101562 5.09375 -2.8125 L 5.09375 0 L 3.625 0 L 3.625 -2.421875 C 3.625 -2.640625 3.550781 -2.832031 3.40625 -3 C 3.269531 -3.164062 3.085938 -3.25 2.859375 -3.25 C 2.628906 -3.25 2.425781 -3.160156 2.25 -2.984375 C 2.070312 -2.816406 1.984375 -2.628906 1.984375 -2.421875 L 1.984375 0 Z M 0.5 0 "/></g></g></g><g fill="#ffffff" fill-opacity="1"><g transform="translate(110.861275, 15.430027)"><g><path d="M 0.5 0 L 0.5 -7.171875 L 1.984375 -7.171875 L 1.984375 0 Z M 0.5 0 "/></g></g></g><g fill="#ffffff" fill-opacity="1"><g transform="translate(113.339117, 15.430027)"><g><path d="M 0.640625 -6.65625 C 0.816406 -6.832031 1.023438 -6.921875 1.265625 -6.921875 C 1.503906 -6.921875 1.707031 -6.832031 1.875 -6.65625 C 2.050781 -6.488281 2.140625 -6.285156 2.140625 -6.046875 C 2.140625 -5.804688 2.050781 -5.597656 1.875 -5.421875 C 1.707031 -5.253906 1.503906 -5.171875 1.265625 -5.171875 C 1.023438 -5.171875 0.816406 -5.253906 0.640625 -5.421875 C 0.472656 -5.597656 0.390625 -5.804688 0.390625 -6.046875 C 0.390625 -6.285156 0.472656 -6.488281 0.640625 -6.65625 Z M 0.5 -4.28125 L 0.5 0 L 1.984375 0 L 1.984375 -4.28125 Z M 0.5 -4.28125 "/></g></g></g><g fill="#ffffff" fill-opacity="1"><g transform="translate(115.858672, 15.430027)"><g><path d="M 0.5 0 L 0.5 -4.28125 L 1.984375 -4.28125 L 1.984375 -3.828125 L 2 -3.828125 C 2.375 -4.210938 2.78125 -4.40625 3.21875 -4.40625 C 3.425781 -4.40625 3.632812 -4.375 3.84375 -4.3125 C 4.050781 -4.257812 4.25 -4.175781 4.4375 -4.0625 C 4.632812 -3.945312 4.789062 -3.78125 4.90625 -3.5625 C 5.03125 -3.351562 5.09375 -3.101562 5.09375 -2.8125 L 5.09375 0 L 3.625 0 L 3.625 -2.421875 C 3.625 -2.640625 3.550781 -2.832031 3.40625 -3 C 3.269531 -3.164062 3.085938 -3.25 2.859375 -3.25 C 2.628906 -3.25 2.425781 -3.160156 2.25 -2.984375 C 2.070312 -2.816406 1.984375 -2.628906 1.984375 -2.421875 L 1.984375 0 Z M 0.5 0 "/></g></g></g><g fill="#ffffff" fill-opacity="1"><g transform="translate(121.373326, 15.430027)"><g><path d="M 4.828125 -1.9375 L 1.734375 -1.9375 C 1.734375 -1.632812 1.828125 -1.410156 2.015625 -1.265625 C 2.210938 -1.117188 2.425781 -1.046875 2.65625 -1.046875 C 2.894531 -1.046875 3.082031 -1.078125 3.21875 -1.140625 C 3.351562 -1.210938 3.515625 -1.34375 3.703125 -1.53125 L 4.765625 -1 C 4.316406 -0.25 3.578125 0.125 2.546875 0.125 C 1.898438 0.125 1.34375 -0.09375 0.875 -0.53125 C 0.414062 -0.976562 0.1875 -1.515625 0.1875 -2.140625 C 0.1875 -2.765625 0.414062 -3.296875 0.875 -3.734375 C 1.34375 -4.179688 1.898438 -4.40625 2.546875 -4.40625 C 3.222656 -4.40625 3.773438 -4.207031 4.203125 -3.8125 C 4.628906 -3.425781 4.84375 -2.867188 4.84375 -2.140625 C 4.84375 -2.035156 4.835938 -1.96875 4.828125 -1.9375 Z M 1.765625 -2.75 L 3.390625 -2.75 C 3.359375 -2.976562 3.269531 -3.148438 3.125 -3.265625 C 2.988281 -3.390625 2.8125 -3.453125 2.59375 -3.453125 C 2.34375 -3.453125 2.144531 -3.382812 2 -3.25 C 1.851562 -3.125 1.773438 -2.957031 1.765625 -2.75 Z M 1.765625 -2.75 "/></g></g></g><g fill="#ffffff" fill-opacity="1"><g transform="translate(44.535768, 24.585326)"><g><path d="M 2.367188 -1.164062 L 2.488281 -1.699219 L 0.484375 -1.699219 L 0.363281 -1.164062 Z M 2.367188 -1.164062 "/></g></g></g><g fill="#ffffff" fill-opacity="1"><g transform="translate(46.733758, 24.585326)"><g><path d="M 2.800781 -1.285156 C 2.734375 -0.996094 2.4375 -0.757812 2.144531 -0.757812 L 1.53125 -0.757812 L 1.769531 -1.816406 L 2.386719 -1.816406 C 2.675781 -1.816406 2.871094 -1.570312 2.800781 -1.285156 Z M 2.921875 -3.121094 C 2.855469 -2.84375 2.574219 -2.613281 2.296875 -2.613281 L 1.957031 -2.613281 L 2.191406 -3.632812 L 2.527344 -3.632812 C 2.804688 -3.632812 2.988281 -3.40625 2.921875 -3.121094 Z M 3.789062 -1.261719 C 3.925781 -1.855469 3.613281 -2.25 3.148438 -2.367188 C 3.511719 -2.515625 3.78125 -2.851562 3.886719 -3.296875 C 4.027344 -3.898438 3.660156 -4.394531 2.910156 -4.394531 L 1.394531 -4.394531 L 0.386719 0 L 2.164062 0 C 3.007812 0 3.613281 -0.503906 3.789062 -1.261719 Z M 3.789062 -1.261719 "/></g></g></g><g fill="#ffffff" fill-opacity="1"><g transform="translate(50.295792, 24.585326)"><g><path d="M 2.488281 -2.132812 C 2.636719 -2.132812 2.765625 -2.089844 2.839844 -1.972656 L 2.851562 -1.972656 L 3.050781 -2.851562 C 2.988281 -2.890625 2.863281 -2.914062 2.78125 -2.914062 C 2.425781 -2.914062 2.125 -2.714844 1.933594 -2.5 L 2.011719 -2.851562 L 1.039062 -2.851562 L 0.386719 0 L 1.359375 0 L 1.679688 -1.421875 C 1.765625 -1.765625 2.125 -2.132812 2.488281 -2.132812 Z M 2.488281 -2.132812 "/></g></g></g><g fill="#ffffff" fill-opacity="1"><g transform="translate(52.758834, 24.585326)"><g><path d="M 1.214844 -3.828125 C 1.144531 -3.515625 1.339844 -3.257812 1.65625 -3.257812 C 1.964844 -3.257812 2.28125 -3.515625 2.351562 -3.828125 C 2.425781 -4.144531 2.222656 -4.394531 1.914062 -4.394531 C 1.597656 -4.394531 1.285156 -4.144531 1.214844 -3.828125 Z M 1.390625 0 L 2.042969 -2.851562 L 1.074219 -2.851562 L 0.421875 0 Z M 1.390625 0 "/></g></g></g><g fill="#ffffff" fill-opacity="1"><g transform="translate(54.568946, 24.585326)"><g><path d="M 3.671875 -1.617188 C 3.851562 -2.390625 3.664062 -2.914062 2.902344 -2.914062 C 2.527344 -2.914062 2.183594 -2.746094 1.933594 -2.5 L 2.011719 -2.851562 L 1.039062 -2.851562 L 0.386719 0 L 1.359375 0 L 1.679688 -1.421875 C 1.769531 -1.808594 2.089844 -2.132812 2.390625 -2.132812 C 2.695312 -2.132812 2.78125 -1.953125 2.703125 -1.617188 L 2.332031 0 L 3.304688 0 Z M 3.671875 -1.617188 "/></g></g></g><g fill="#ffffff" fill-opacity="1"><g transform="translate(58.163301, 24.585326)"><g><path d="M 2.101562 -0.710938 C 1.714844 -0.710938 1.5 -1.046875 1.589844 -1.429688 C 1.675781 -1.804688 2.042969 -2.140625 2.429688 -2.140625 C 2.820312 -2.140625 3.03125 -1.804688 2.949219 -1.429688 C 2.855469 -1.046875 2.488281 -0.710938 2.101562 -0.710938 Z M 3.195312 -2.5 C 2.988281 -2.824219 2.675781 -2.914062 2.3125 -2.914062 C 1.507812 -2.914062 0.738281 -2.21875 0.554688 -1.429688 C 0.367188 -0.640625 0.816406 0.0664062 1.621094 0.0664062 C 1.984375 0.0664062 2.429688 -0.0507812 2.695312 -0.347656 L 2.59375 0.101562 C 2.496094 0.511719 2.101562 0.898438 1.675781 0.898438 C 1.363281 0.898438 1.152344 0.699219 1.15625 0.363281 L 0.1875 0.363281 C 0.03125 1.226562 0.789062 1.617188 1.5625 1.617188 C 2.46875 1.617188 3.367188 0.929688 3.585938 -0.0078125 L 4.242188 -2.851562 L 3.269531 -2.851562 Z M 3.195312 -2.5 "/></g></g></g><g fill="#ffffff" fill-opacity="1"><g transform="translate(62.139074, 24.585326)"><g><path d="M 1.214844 -3.828125 C 1.144531 -3.515625 1.339844 -3.257812 1.65625 -3.257812 C 1.964844 -3.257812 2.28125 -3.515625 2.351562 -3.828125 C 2.425781 -4.144531 2.222656 -4.394531 1.914062 -4.394531 C 1.597656 -4.394531 1.285156 -4.144531 1.214844 -3.828125 Z M 1.390625 0 L 2.042969 -2.851562 L 1.074219 -2.851562 L 0.421875 0 Z M 1.390625 0 "/></g></g></g><g fill="#ffffff" fill-opacity="1"><g transform="translate(63.949186, 24.585326)"><g><path d="M 3.671875 -1.617188 C 3.851562 -2.390625 3.664062 -2.914062 2.902344 -2.914062 C 2.527344 -2.914062 2.183594 -2.746094 1.933594 -2.5 L 2.011719 -2.851562 L 1.039062 -2.851562 L 0.386719 0 L 1.359375 0 L 1.679688 -1.421875 C 1.769531 -1.808594 2.089844 -2.132812 2.390625 -2.132812 C 2.695312 -2.132812 2.78125 -1.953125 2.703125 -1.617188 L 2.332031 0 L 3.304688 0 Z M 3.671875 -1.617188 "/></g></g></g><g fill="#ffffff" fill-opacity="1"><g transform="translate(67.543541, 24.585326)"><g><path d="M 2.101562 -0.710938 C 1.714844 -0.710938 1.5 -1.046875 1.589844 -1.429688 C 1.675781 -1.804688 2.042969 -2.140625 2.429688 -2.140625 C 2.820312 -2.140625 3.03125 -1.804688 2.949219 -1.429688 C 2.855469 -1.046875 2.488281 -0.710938 2.101562 -0.710938 Z M 3.195312 -2.5 C 2.988281 -2.824219 2.675781 -2.914062 2.3125 -2.914062 C 1.507812 -2.914062 0.738281 -2.21875 0.554688 -1.429688 C 0.367188 -0.640625 0.816406 0.0664062 1.621094 0.0664062 C 1.984375 0.0664062 2.429688 -0.0507812 2.695312 -0.347656 L 2.59375 0.101562 C 2.496094 0.511719 2.101562 0.898438 1.675781 0.898438 C 1.363281 0.898438 1.152344 0.699219 1.15625 0.363281 L 0.1875 0.363281 C 0.03125 1.226562 0.789062 1.617188 1.5625 1.617188 C 2.46875 1.617188 3.367188 0.929688 3.585938 -0.0078125 L 4.242188 -2.851562 L 3.269531 -2.851562 Z M 3.195312 -2.5 "/></g></g></g><g fill="#ffffff" fill-opacity="1"><g transform="translate(71.519313, 24.585326)"><g/></g></g><g fill="#ffffff" fill-opacity="1"><g transform="translate(73.135478, 24.585326)"><g><path d="M 1.214844 -3.828125 C 1.144531 -3.515625 1.339844 -3.257812 1.65625 -3.257812 C 1.964844 -3.257812 2.28125 -3.515625 2.351562 -3.828125 C 2.425781 -4.144531 2.222656 -4.394531 1.914062 -4.394531 C 1.597656 -4.394531 1.285156 -4.144531 1.214844 -3.828125 Z M 1.390625 0 L 2.042969 -2.851562 L 1.074219 -2.851562 L 0.421875 0 Z M 1.390625 0 "/></g></g></g><g fill="#ffffff" fill-opacity="1"><g transform="translate(74.94559, 24.585326)"><g><path d="M 2.941406 -1.421875 C 2.855469 -1.046875 2.488281 -0.710938 2.101562 -0.710938 C 1.714844 -0.710938 1.5 -1.046875 1.582031 -1.421875 C 1.675781 -1.796875 2.042969 -2.132812 2.429688 -2.132812 C 2.820312 -2.132812 3.03125 -1.796875 2.941406 -1.421875 Z M 4.707031 -4.847656 L 3.738281 -4.847656 L 3.195312 -2.5 C 3.011719 -2.8125 2.675781 -2.914062 2.3125 -2.914062 C 1.507812 -2.914062 0.730469 -2.210938 0.550781 -1.421875 C 0.367188 -0.632812 0.816406 0.0664062 1.621094 0.0664062 C 1.984375 0.0664062 2.429688 -0.0507812 2.695312 -0.34375 L 2.617188 0 L 3.585938 0 Z M 4.707031 -4.847656 "/></g></g></g><g fill="#ffffff" fill-opacity="1"><g transform="translate(78.921362, 24.585326)"><g><path d="M 1.675781 -1.765625 C 1.675781 -1.765625 1.824219 -2.296875 2.429688 -2.296875 C 3.019531 -2.296875 2.949219 -1.765625 2.949219 -1.765625 Z M 3.8125 -1.488281 C 4.019531 -2.398438 3.425781 -2.914062 2.558594 -2.914062 C 1.601562 -2.914062 0.757812 -2.3125 0.550781 -1.421875 C 0.34375 -0.515625 0.886719 0.0664062 1.867188 0.0664062 C 2.625 0.0664062 3.324219 -0.308594 3.660156 -1.058594 L 2.667969 -1.058594 C 2.617188 -0.851562 2.351562 -0.628906 2.011719 -0.628906 C 1.628906 -0.628906 1.472656 -0.976562 1.550781 -1.304688 L 3.761719 -1.304688 C 3.773438 -1.363281 3.800781 -1.429688 3.8125 -1.488281 Z M 3.8125 -1.488281 "/></g></g></g><g fill="#ffffff" fill-opacity="1"><g transform="translate(82.619152, 24.585326)"><g><path d="M 2.941406 -1.421875 C 2.855469 -1.046875 2.488281 -0.710938 2.101562 -0.710938 C 1.714844 -0.710938 1.5 -1.046875 1.582031 -1.421875 C 1.675781 -1.796875 2.042969 -2.132812 2.429688 -2.132812 C 2.820312 -2.132812 3.03125 -1.796875 2.941406 -1.421875 Z M 4.242188 -2.84375 L 3.269531 -2.84375 L 3.195312 -2.5 C 3.011719 -2.8125 2.675781 -2.914062 2.3125 -2.914062 C 1.507812 -2.914062 0.730469 -2.210938 0.550781 -1.421875 C 0.367188 -0.632812 0.816406 0.0664062 1.621094 0.0664062 C 1.984375 0.0664062 2.429688 -0.0507812 2.695312 -0.34375 L 2.617188 0 L 3.585938 0 Z M 4.242188 -2.84375 "/></g></g></g><g fill="#ffffff" fill-opacity="1"><g transform="translate(86.594924, 24.585326)"><g><path d="M 3.476562 -1.984375 C 3.550781 -2.636719 3.0625 -2.914062 2.3125 -2.914062 C 1.371094 -2.914062 0.847656 -2.59375 0.710938 -2.011719 C 0.472656 -0.976562 2.425781 -1.449219 2.289062 -0.847656 C 2.25 -0.691406 2.042969 -0.609375 1.824219 -0.609375 C 1.609375 -0.609375 1.234375 -0.632812 1.332031 -1.058594 L 0.367188 -1.058594 C 0.238281 -0.253906 0.800781 0.0664062 1.648438 0.0664062 C 2.476562 0.0664062 3.109375 -0.179688 3.265625 -0.851562 C 3.542969 -2.054688 1.601562 -1.648438 1.699219 -2.050781 C 1.738281 -2.21875 1.957031 -2.3125 2.144531 -2.3125 C 2.332031 -2.3125 2.558594 -2.242188 2.527344 -1.984375 Z M 3.476562 -1.984375 "/></g></g></g><g fill="#ffffff" fill-opacity="1"><g transform="translate(89.859584, 24.585326)"><g/></g></g><g fill="#ffffff" fill-opacity="1"><g transform="translate(91.475749, 24.585326)"><g><path d="M 2.09375 -2.101562 L 2.613281 -2.101562 L 2.78125 -2.851562 L 2.261719 -2.851562 L 2.515625 -3.9375 L 1.550781 -3.9375 L 1.300781 -2.851562 L 0.78125 -2.851562 L 0.613281 -2.101562 L 1.132812 -2.101562 L 0.644531 0 L 1.609375 0 Z M 2.09375 -2.101562 "/></g></g></g><g fill="#ffffff" fill-opacity="1"><g transform="translate(93.731921, 24.585326)"><g><path d="M 2.011719 -0.671875 C 1.488281 -0.671875 1.429688 -1.054688 1.511719 -1.414062 C 1.597656 -1.769531 1.835938 -2.152344 2.347656 -2.152344 C 2.851562 -2.152344 2.921875 -1.769531 2.839844 -1.414062 C 2.753906 -1.054688 2.527344 -0.671875 2.011719 -0.671875 Z M 2.519531 -2.910156 C 1.628906 -2.910156 0.757812 -2.3125 0.550781 -1.421875 C 0.34375 -0.511719 0.925781 0.0585938 1.835938 0.0585938 C 2.742188 0.0585938 3.59375 -0.511719 3.800781 -1.421875 C 4.007812 -2.3125 3.40625 -2.910156 2.519531 -2.910156 Z M 2.519531 -2.910156 "/></g></g></g><g fill="#ffffff" fill-opacity="1"><g transform="translate(97.436181, 24.585326)"><g/></g></g><g fill="#ffffff" fill-opacity="1"><g transform="translate(99.052345, 24.585326)"><g><path d="M 1.359375 0 L 2.476562 -4.847656 L 1.507812 -4.847656 L 0.386719 0 Z M 1.359375 0 "/></g></g></g><g fill="#ffffff" fill-opacity="1"><g transform="translate(100.797806, 24.585326)"><g><path d="M 1.214844 -3.828125 C 1.144531 -3.515625 1.339844 -3.257812 1.65625 -3.257812 C 1.964844 -3.257812 2.28125 -3.515625 2.351562 -3.828125 C 2.425781 -4.144531 2.222656 -4.394531 1.914062 -4.394531 C 1.597656 -4.394531 1.285156 -4.144531 1.214844 -3.828125 Z M 1.390625 0 L 2.042969 -2.851562 L 1.074219 -2.851562 L 0.421875 0 Z M 1.390625 0 "/></g></g></g><g fill="#ffffff" fill-opacity="1"><g transform="translate(102.607918, 24.585326)"><g><path d="M 2.636719 -4.847656 C 2.121094 -4.847656 1.640625 -4.523438 1.480469 -3.820312 L 1.253906 -2.851562 L 0.847656 -2.851562 L 0.679688 -2.101562 L 1.085938 -2.101562 L 0.601562 0 L 1.570312 0 L 2.054688 -2.101562 L 2.722656 -2.101562 L 2.890625 -2.851562 L 2.222656 -2.851562 L 2.425781 -3.703125 C 2.488281 -3.980469 2.566406 -4.09375 2.765625 -4.09375 L 3.179688 -4.09375 L 3.355469 -4.847656 Z M 2.636719 -4.847656 "/></g></g></g><g fill="#ffffff" fill-opacity="1"><g transform="translate(104.954595, 24.585326)"><g><path d="M 1.675781 -1.765625 C 1.675781 -1.765625 1.824219 -2.296875 2.429688 -2.296875 C 3.019531 -2.296875 2.949219 -1.765625 2.949219 -1.765625 Z M 3.8125 -1.488281 C 4.019531 -2.398438 3.425781 -2.914062 2.558594 -2.914062 C 1.601562 -2.914062 0.757812 -2.3125 0.550781 -1.421875 C 0.34375 -0.515625 0.886719 0.0664062 1.867188 0.0664062 C 2.625 0.0664062 3.324219 -0.308594 3.660156 -1.058594 L 2.667969 -1.058594 C 2.617188 -0.851562 2.351562 -0.628906 2.011719 -0.628906 C 1.628906 -0.628906 1.472656 -0.976562 1.550781 -1.304688 L 3.761719 -1.304688 C 3.773438 -1.363281 3.800781 -1.429688 3.8125 -1.488281 Z M 3.8125 -1.488281 "/></g></g></g><g fill="#ffffff" fill-opacity="1"><g transform="translate(108.652385, 24.585326)"><g><path d="M 2.367188 -1.164062 L 2.488281 -1.699219 L 0.484375 -1.699219 L 0.363281 -1.164062 Z M 2.367188 -1.164062 "/></g></g></g></svg>